<?xml version='1.0' encoding='UTF-8'?>
<!DOCTYPE score-partwise PUBLIC "-//Recordare//DTD MusicXML 3.0 Partwise//EN" "http://www.musicxml.org/dtds/partwise.dtd">
<score-partwise version="4.0">
  <identification>
    <encoding>
      <supports element="accidental" type="yes"/>
      <supports element="transpose" type="yes"/>
      <software>Soundslice MusicXML exporter</software>
      <encoding-date>2025-02-09</encoding-date>
    </encoding>
  </identification>
  <part-list>
    <score-part id="P1">
      <part-name>Track 1</part-name>
    </score-part>
  </part-list>
  <part id="P1">
    <measure number="1">
      <attributes>
        <divisions>8</divisions>
        <key>
          <fifths>-2</fifths>
          <mode>major</mode>
        </key>
        <time symbol="common">
          <beats>4</beats>
          <beat-type>4</beat-type>
        </time>
        <clef>
          <sign>F</sign>
          <line>4</line>
        </clef>
      </attributes>
      <sound tempo="120"/>
      <direction>
        <direction-type>
          <dynamics>
            <p/>
          </dynamics>
        </direction-type>
      </direction>
      <note>
        <pitch>
          <step>D</step>
          <octave>3</octave>
        </pitch>
        <duration>8</duration>
        <type>quarter</type>
        <stem>down</stem>
        <notations>
          <technical>
            <fingering placement="above">0</fingering>
          </technical>
        </notations>
      </note>
      <note>
        <pitch>
          <step>D</step>
          <octave>3</octave>
        </pitch>
        <duration>8</duration>
        <type>quarter</type>
        <stem>down</stem>
        <notations>
          <technical>
            <fingering>0</fingering>
          </technical>
        </notations>
      </note>
      <note>
        <pitch>
          <step>G</step>
          <octave>3</octave>
        </pitch>
        <duration>8</duration>
        <type>quarter</type>
        <stem>down</stem>
        <notations>
          <technical>
            <fingering placement="above">4</fingering>
          </technical>
        </notations>
      </note>
      <note>
        <pitch>
          <step>A</step>
          <octave>3</octave>
        </pitch>
        <duration>8</duration>
        <type>quarter</type>
        <stem>down</stem>
        <notations>
          <technical>
            <fingering placement="above">0</fingering>
          </technical>
        </notations>
      </note>
    </measure>
    <measure number="2">
      <note>
        <pitch>
          <step>B</step>
          <alter>-1</alter>
          <octave>3</octave>
        </pitch>
        <duration>8</duration>
        <type>quarter</type>
        <stem>down</stem>
        <notations>
          <technical>
            <fingering placement="above">1</fingering>
          </technical>
        </notations>
      </note>
      <note>
        <pitch>
          <step>A</step>
          <octave>3</octave>
        </pitch>
        <duration>8</duration>
        <type>quarter</type>
        <stem>down</stem>
        <notations>
          <technical>
            <fingering placement="above">0</fingering>
          </technical>
        </notations>
      </note>
      <note>
        <pitch>
          <step>G</step>
          <octave>3</octave>
        </pitch>
        <duration>16</duration>
        <type>half</type>
        <stem>down</stem>
        <notations>
          <technical>
            <fingering placement="above">4</fingering>
          </technical>
        </notations>
      </note>
    </measure>
    <measure number="3">
      <direction>
        <direction-type>
          <dynamics>
            <p/>
          </dynamics>
        </direction-type>
      </direction>
      <note>
        <pitch>
          <step>E</step>
          <alter>-1</alter>
          <octave>3</octave>
        </pitch>
        <duration>8</duration>
        <type>quarter</type>
        <stem>down</stem>
        <notations>
          <technical>
            <fingering placement="above">1</fingering>
          </technical>
        </notations>
      </note>
      <note>
        <pitch>
          <step>E</step>
          <alter>-1</alter>
          <octave>3</octave>
        </pitch>
        <duration>8</duration>
        <type>quarter</type>
        <stem>down</stem>
        <notations>
          <technical>
            <fingering>1</fingering>
          </technical>
        </notations>
      </note>
      <note>
        <pitch>
          <step>D</step>
          <octave>3</octave>
        </pitch>
        <duration>8</duration>
        <type>quarter</type>
        <stem>down</stem>
        <notations>
          <technical>
            <fingering placement="above">0</fingering>
          </technical>
        </notations>
      </note>
      <note>
        <pitch>
          <step>C</step>
          <octave>3</octave>
        </pitch>
        <duration>8</duration>
        <type>quarter</type>
        <stem>up</stem>
        <notations>
          <technical>
            <fingering placement="above">4</fingering>
          </technical>
        </notations>
      </note>
    </measure>
    <measure number="4">
      <note>
        <pitch>
          <step>D</step>
          <octave>3</octave>
        </pitch>
        <duration>24</duration>
        <type>half</type>
        <dot/>
        <stem>down</stem>
        <notations>
          <technical>
            <fingering placement="above">0</fingering>
          </technical>
        </notations>
      </note>
      <note>
        <rest/>
        <duration>8</duration>
        <type>quarter</type>
      </note>
    </measure>
    <measure number="5">
      <print new-system="yes"/>
      <direction>
        <direction-type>
          <dynamics>
            <mf/>
          </dynamics>
        </direction-type>
      </direction>
      <direction>
        <direction-type>
          <wedge type="crescendo"/>
        </direction-type>
      </direction>
      <note>
        <pitch>
          <step>D</step>
          <octave>3</octave>
        </pitch>
        <duration>8</duration>
        <type>quarter</type>
        <stem>down</stem>
        <notations>
          <technical>
            <fingering placement="above">0</fingering>
          </technical>
        </notations>
      </note>
      <note>
        <pitch>
          <step>D</step>
          <octave>3</octave>
        </pitch>
        <duration>8</duration>
        <type>quarter</type>
        <stem>down</stem>
        <notations>
          <technical>
            <fingering>0</fingering>
          </technical>
        </notations>
      </note>
      <note>
        <pitch>
          <step>G</step>
          <octave>3</octave>
        </pitch>
        <duration>8</duration>
        <type>quarter</type>
        <stem>down</stem>
        <notations>
          <technical>
            <fingering placement="above">4</fingering>
          </technical>
        </notations>
      </note>
      <note>
        <pitch>
          <step>A</step>
          <octave>3</octave>
        </pitch>
        <duration>8</duration>
        <type>quarter</type>
        <stem>down</stem>
        <notations>
          <technical>
            <fingering placement="above">0</fingering>
          </technical>
        </notations>
      </note>
    </measure>
    <measure number="6">
      <note>
        <pitch>
          <step>B</step>
          <alter>-1</alter>
          <octave>3</octave>
        </pitch>
        <duration>8</duration>
        <type>quarter</type>
        <stem>down</stem>
        <notations>
          <technical>
            <fingering placement="above">1</fingering>
          </technical>
        </notations>
      </note>
      <note>
        <pitch>
          <step>A</step>
          <octave>3</octave>
        </pitch>
        <duration>8</duration>
        <type>quarter</type>
        <stem>down</stem>
        <notations>
          <technical>
            <fingering placement="above">0</fingering>
          </technical>
        </notations>
      </note>
      <note>
        <pitch>
          <step>G</step>
          <octave>3</octave>
        </pitch>
        <duration>16</duration>
        <type>half</type>
        <stem>down</stem>
        <notations>
          <technical>
            <fingering placement="above">4</fingering>
          </technical>
        </notations>
      </note>
    </measure>
    <measure number="7">
      <direction>
        <direction-type>
          <dynamics>
            <p/>
          </dynamics>
        </direction-type>
      </direction>
      <note>
        <pitch>
          <step>E</step>
          <alter>-1</alter>
          <octave>3</octave>
        </pitch>
        <duration>8</duration>
        <type>quarter</type>
        <stem>down</stem>
        <notations>
          <technical>
            <fingering placement="above">1</fingering>
          </technical>
        </notations>
      </note>
      <note>
        <pitch>
          <step>C</step>
          <octave>3</octave>
        </pitch>
        <duration>8</duration>
        <type>quarter</type>
        <stem>up</stem>
        <notations>
          <technical>
            <fingering placement="above">4</fingering>
          </technical>
        </notations>
      </note>
      <note>
        <pitch>
          <step>D</step>
          <octave>3</octave>
        </pitch>
        <duration>12</duration>
        <tie type="start"/>
        <type>quarter</type>
        <dot/>
        <stem>down</stem>
        <notations>
          <tied type="start"/>
          <technical>
            <fingering placement="above">0</fingering>
          </technical>
        </notations>
      </note>
      <note>
        <pitch>
          <step>D</step>
          <octave>3</octave>
        </pitch>
        <duration>4</duration>
        <tie type="stop"/>
        <type>eighth</type>
        <stem>down</stem>
        <notations>
          <tied type="stop"/>
          <technical>
            <fingering>0</fingering>
          </technical>
          <articulations>
            <tenuto/>
          </articulations>
        </notations>
      </note>
    </measure>
    <measure number="8">
      <note>
        <pitch>
          <step>G</step>
          <octave>2</octave>
        </pitch>
        <duration>24</duration>
        <type>half</type>
        <dot/>
        <stem>up</stem>
        <notations>
          <technical>
            <fingering placement="above">0</fingering>
          </technical>
        </notations>
      </note>
      <note>
        <rest/>
        <duration>8</duration>
        <type>quarter</type>
      </note>
    </measure>
    <measure number="9">
      <print new-system="yes"/>
      <direction>
        <direction-type>
          <dynamics>
            <f/>
          </dynamics>
        </direction-type>
      </direction>
      <note>
        <pitch>
          <step>B</step>
          <alter>-1</alter>
          <octave>2</octave>
        </pitch>
        <duration>12</duration>
        <tie type="start"/>
        <type>quarter</type>
        <dot/>
        <stem>up</stem>
        <notations>
          <tied type="start"/>
          <technical>
            <fingering placement="above">2</fingering>
          </technical>
        </notations>
      </note>
      <note>
        <pitch>
          <step>B</step>
          <alter>-1</alter>
          <octave>2</octave>
        </pitch>
        <duration>4</duration>
        <tie type="stop"/>
        <type>eighth</type>
        <stem>up</stem>
        <notations>
          <tied type="stop"/>
          <technical>
            <fingering>2</fingering>
          </technical>
          <articulations>
            <tenuto/>
          </articulations>
        </notations>
      </note>
      <note>
        <pitch>
          <step>A</step>
          <octave>2</octave>
        </pitch>
        <duration>8</duration>
        <type>quarter</type>
        <stem>up</stem>
        <notations>
          <technical>
            <fingering placement="above">1</fingering>
          </technical>
        </notations>
      </note>
      <note>
        <pitch>
          <step>G</step>
          <octave>2</octave>
        </pitch>
        <duration>8</duration>
        <type>quarter</type>
        <stem>up</stem>
        <notations>
          <technical>
            <fingering placement="above">0</fingering>
          </technical>
        </notations>
      </note>
    </measure>
    <measure number="10">
      <direction>
        <direction-type>
          <wedge type="diminuendo"/>
        </direction-type>
      </direction>
      <note>
        <pitch>
          <step>E</step>
          <alter>-1</alter>
          <octave>3</octave>
        </pitch>
        <duration>8</duration>
        <type>quarter</type>
        <stem>down</stem>
        <notations>
          <technical>
            <fingering placement="above">1</fingering>
          </technical>
        </notations>
      </note>
      <note>
        <pitch>
          <step>E</step>
          <alter>-1</alter>
          <octave>3</octave>
        </pitch>
        <duration>8</duration>
        <type>quarter</type>
        <stem>down</stem>
        <notations>
          <technical>
            <fingering>1</fingering>
          </technical>
        </notations>
      </note>
      <note>
        <pitch>
          <step>D</step>
          <octave>3</octave>
        </pitch>
        <duration>16</duration>
        <type>half</type>
        <stem>down</stem>
        <notations>
          <technical>
            <fingering placement="above">0</fingering>
          </technical>
        </notations>
      </note>
    </measure>
    <measure number="11">
      <direction>
        <direction-type>
          <dynamics>
            <p/>
          </dynamics>
        </direction-type>
      </direction>
      <note>
        <pitch>
          <step>C</step>
          <octave>3</octave>
        </pitch>
        <duration>8</duration>
        <type>quarter</type>
        <stem>up</stem>
        <notations>
          <technical>
            <fingering placement="above">4</fingering>
          </technical>
        </notations>
      </note>
      <note>
        <pitch>
          <step>D</step>
          <octave>3</octave>
        </pitch>
        <duration>8</duration>
        <type>quarter</type>
        <stem>down</stem>
        <notations>
          <technical>
            <fingering placement="above">0</fingering>
          </technical>
        </notations>
      </note>
      <note>
        <pitch>
          <step>E</step>
          <alter>-1</alter>
          <octave>3</octave>
        </pitch>
        <duration>12</duration>
        <tie type="start"/>
        <type>quarter</type>
        <dot/>
        <stem>down</stem>
        <notations>
          <tied type="start"/>
          <technical>
            <fingering placement="above">1</fingering>
          </technical>
        </notations>
      </note>
      <note>
        <pitch>
          <step>E</step>
          <alter>-1</alter>
          <octave>3</octave>
        </pitch>
        <duration>4</duration>
        <tie type="stop"/>
        <type>eighth</type>
        <stem>down</stem>
        <notations>
          <tied type="stop"/>
          <technical>
            <fingering>1</fingering>
          </technical>
          <articulations>
            <tenuto/>
          </articulations>
        </notations>
      </note>
    </measure>
    <measure number="12">
      <note>
        <pitch>
          <step>D</step>
          <octave>3</octave>
        </pitch>
        <duration>24</duration>
        <type>half</type>
        <dot/>
        <stem>down</stem>
        <notations>
          <technical>
            <fingering placement="above">0</fingering>
          </technical>
        </notations>
      </note>
      <note>
        <rest/>
        <duration>8</duration>
        <type>quarter</type>
      </note>
    </measure>
    <measure number="13">
      <print new-system="yes"/>
      <direction>
        <direction-type>
          <dynamics>
            <p/>
          </dynamics>
        </direction-type>
      </direction>
      <direction>
        <direction-type>
          <wedge type="crescendo"/>
        </direction-type>
      </direction>
      <note>
        <pitch>
          <step>D</step>
          <octave>3</octave>
        </pitch>
        <duration>8</duration>
        <type>quarter</type>
        <stem>down</stem>
        <notations>
          <technical>
            <fingering placement="above">0</fingering>
          </technical>
        </notations>
      </note>
      <note>
        <pitch>
          <step>D</step>
          <octave>3</octave>
        </pitch>
        <duration>8</duration>
        <type>quarter</type>
        <stem>down</stem>
        <notations>
          <technical>
            <fingering>0</fingering>
          </technical>
        </notations>
      </note>
      <note>
        <pitch>
          <step>G</step>
          <octave>3</octave>
        </pitch>
        <duration>8</duration>
        <type>quarter</type>
        <stem>down</stem>
        <notations>
          <technical>
            <fingering placement="above">4</fingering>
          </technical>
        </notations>
      </note>
      <note>
        <pitch>
          <step>A</step>
          <octave>3</octave>
        </pitch>
        <duration>8</duration>
        <type>quarter</type>
        <stem>down</stem>
        <notations>
          <technical>
            <fingering placement="above">0</fingering>
          </technical>
        </notations>
      </note>
    </measure>
    <measure number="14">
      <note>
        <pitch>
          <step>B</step>
          <alter>-1</alter>
          <octave>3</octave>
        </pitch>
        <duration>8</duration>
        <type>quarter</type>
        <stem>down</stem>
        <notations>
          <technical>
            <fingering placement="above">1</fingering>
          </technical>
        </notations>
      </note>
      <note>
        <pitch>
          <step>A</step>
          <octave>3</octave>
        </pitch>
        <duration>8</duration>
        <type>quarter</type>
        <stem>down</stem>
        <notations>
          <technical>
            <fingering placement="above">0</fingering>
          </technical>
        </notations>
      </note>
      <note>
        <pitch>
          <step>G</step>
          <octave>3</octave>
        </pitch>
        <duration>16</duration>
        <type>half</type>
        <stem>down</stem>
        <notations>
          <technical>
            <fingering placement="above">4</fingering>
          </technical>
        </notations>
      </note>
    </measure>
    <measure number="15">
      <direction>
        <direction-type>
          <dynamics>
            <pp/>
          </dynamics>
        </direction-type>
      </direction>
      <note>
        <pitch>
          <step>E</step>
          <alter>-1</alter>
          <octave>3</octave>
        </pitch>
        <duration>8</duration>
        <type>quarter</type>
        <stem>down</stem>
        <notations>
          <technical>
            <fingering placement="above">1</fingering>
          </technical>
        </notations>
      </note>
      <note>
        <pitch>
          <step>C</step>
          <octave>3</octave>
        </pitch>
        <duration>8</duration>
        <type>quarter</type>
        <stem>up</stem>
        <notations>
          <technical>
            <fingering placement="above">4</fingering>
          </technical>
        </notations>
      </note>
      <note>
        <pitch>
          <step>D</step>
          <octave>3</octave>
        </pitch>
        <duration>12</duration>
        <tie type="start"/>
        <type>quarter</type>
        <dot/>
        <stem>down</stem>
        <notations>
          <tied type="start"/>
          <technical>
            <fingering placement="above">0</fingering>
          </technical>
        </notations>
      </note>
      <note>
        <pitch>
          <step>D</step>
          <octave>3</octave>
        </pitch>
        <duration>4</duration>
        <tie type="stop"/>
        <type>eighth</type>
        <stem>down</stem>
        <notations>
          <tied type="stop"/>
          <technical>
            <fingering>0</fingering>
          </technical>
          <articulations>
            <tenuto/>
          </articulations>
        </notations>
      </note>
    </measure>
    <measure number="16">
      <note>
        <pitch>
          <step>G</step>
          <octave>2</octave>
        </pitch>
        <duration>24</duration>
        <type>half</type>
        <dot/>
        <stem>up</stem>
        <notations>
          <technical>
            <fingering placement="above">0</fingering>
          </technical>
        </notations>
      </note>
      <note>
        <rest/>
        <duration>8</duration>
        <type>quarter</type>
      </note>
    </measure>
  </part>
</score-partwise>
